<?xml version="1.0" encoding="UTF-8"?>
<!-- This file is generated by npm run build:icons -->
<svg xmlns="http://www.w3.org/2000/svg" xmlns:xlink="http://www.w3.org/1999/xlink" width="0" height="0">
<defs>
<symbol viewBox="0 0 24 24" fill="none" stroke="currentColor" stroke-width="2" stroke-linecap="round" stroke-linejoin="round" id="tabler/briefcase-2-outline">
  <path d="M3 9a2 2 0 0 1 2 -2h14a2 2 0 0 1 2 2v9a2 2 0 0 1 -2 2h-14a2 2 0 0 1 -2 -2v-9z" ></path>
  <path d="M8 7v-2a2 2 0 0 1 2 -2h4a2 2 0 0 1 2 2v2" ></path>
</symbol>
<symbol viewBox="0 0 24 24" fill="none" stroke="currentColor" stroke-width="2" stroke-linecap="round" stroke-linejoin="round" id="tabler/file-outline">
  <path d="M14 3v4a1 1 0 0 0 1 1h4" ></path>
  <path d="M17 21h-10a2 2 0 0 1 -2 -2v-14a2 2 0 0 1 2 -2h7l5 5v11a2 2 0 0 1 -2 2z" ></path>
</symbol>
<symbol viewBox="0 0 24 24" fill="none" stroke="currentColor" stroke-width="2" stroke-linecap="round" stroke-linejoin="round" id="tabler/folder-outline">
  <path d="M5 4h4l3 3h7a2 2 0 0 1 2 2v8a2 2 0 0 1 -2 2h-14a2 2 0 0 1 -2 -2v-11a2 2 0 0 1 2 -2" ></path>
</symbol>
<symbol viewBox="0 0 24 24" fill="none" stroke="currentColor" stroke-width="2" stroke-linecap="round" stroke-linejoin="round" id="tabler/home-outline">
  <path d="M5 12l-2 0l9 -9l9 9l-2 0" ></path>
  <path d="M5 12v7a2 2 0 0 0 2 2h10a2 2 0 0 0 2 -2v-7" ></path>
  <path d="M9 21v-6a2 2 0 0 1 2 -2h2a2 2 0 0 1 2 2v6" ></path>
</symbol>
<symbol viewBox="0 0 24 24" fill="none" stroke="currentColor" stroke-width="2" stroke-linecap="round" stroke-linejoin="round" id="tabler/menu-2-outline">
  <path d="M4 6l16 0" ></path>
  <path d="M4 12l16 0" ></path>
  <path d="M4 18l16 0" ></path>
</symbol>
<symbol viewBox="0 0 24 24" fill="none" stroke="currentColor" stroke-width="2" stroke-linecap="round" stroke-linejoin="round" id="tabler/x-outline">
  <path d="M18 6l-12 12" ></path>
  <path d="M6 6l12 12" ></path>
</symbol>
</defs>
</svg>
