<?xml version="1.0" encoding="UTF-8"?>
<!-- This file is generated by npm run build:icons -->
<svg xmlns="http://www.w3.org/2000/svg" xmlns:xlink="http://www.w3.org/1999/xlink" width="0" height="0">
<defs>
<symbol viewBox="0 0 24 24" fill="none" stroke="currentColor" stroke-width="2" stroke-linecap="round" stroke-linejoin="round" id="lucide/chevrons-left-right">
  <path d="m9 7-5 5 5 5" ></path>
  <path d="m15 7 5 5-5 5" ></path>
</symbol>
<symbol viewBox="0 0 24 24" fill="none" stroke="currentColor" stroke-width="2" stroke-linecap="round" stroke-linejoin="round" id="lucide/copy-check">
  <path d="m12 15 2 2 4-4" ></path>
  <rect width="14" height="14" x="8" y="8" rx="2" ry="2" ></rect>
  <path d="M4 16c-1.1 0-2-.9-2-2V4c0-1.1.9-2 2-2h10c1.1 0 2 .9 2 2" ></path>
</symbol>
<symbol viewBox="0 0 24 24" fill="none" stroke="currentColor" stroke-width="2" stroke-linecap="round" stroke-linejoin="round" id="lucide/copy">
  <rect width="14" height="14" x="8" y="8" rx="2" ry="2" ></rect>
  <path d="M4 16c-1.1 0-2-.9-2-2V4c0-1.1.9-2 2-2h10c1.1 0 2 .9 2 2" ></path>
</symbol>
<symbol viewBox="0 0 24 24" fill="none" stroke="currentColor" stroke-width="2" stroke-linecap="round" stroke-linejoin="round" id="tabler/brand-firebase-outline">
  <path d="M4.53 17.05l6.15 -11.72h-.02c.38 -.74 1.28 -1.02 2.01 -.63c.26 .14 .48 .36 .62 .62l1.06 2.01" ></path>
  <path d="M15.47 6.45c.58 -.59 1.53 -.59 2.11 -.01c.22 .22 .36 .5 .41 .81l1.5 9.11c.1 .62 -.2 1.24 -.76 1.54l-6.07 2.9c-.46 .25 -1.01 .26 -1.46 0l-6.02 -2.92c-.55 -.31 -.85 -.92 -.75 -1.54l1.96 -12.04c.12 -.82 .89 -1.38 1.7 -1.25c.46 .07 .87 .36 1.09 .77l1.24 1.76" ></path>
  <path d="M4.57 17.18l10.93 -10.68" ></path>
</symbol>
<symbol viewBox="0 0 24 24" fill="none" stroke="currentColor" stroke-width="2" stroke-linecap="round" stroke-linejoin="round" id="tabler/brand-git-outline">
  <path d="M16 12m-1 0a1 1 0 1 0 2 0a1 1 0 1 0 -2 0" ></path>
  <path d="M12 8m-1 0a1 1 0 1 0 2 0a1 1 0 1 0 -2 0" ></path>
  <path d="M12 16m-1 0a1 1 0 1 0 2 0a1 1 0 1 0 -2 0" ></path>
  <path d="M12 15v-6" ></path>
  <path d="M15 11l-2 -2" ></path>
  <path d="M11 7l-1.9 -1.9" ></path>
  <path d="M13.446 2.6l7.955 7.954a2.045 2.045 0 0 1 0 2.892l-7.955 7.955a2.045 2.045 0 0 1 -2.892 0l-7.955 -7.955a2.045 2.045 0 0 1 0 -2.892l7.955 -7.955a2.045 2.045 0 0 1 2.892 0z" ></path>
</symbol>
<symbol viewBox="0 0 24 24" fill="none" stroke="currentColor" stroke-width="2" stroke-linecap="round" stroke-linejoin="round" id="tabler/brand-github-outline">
  <path d="M9 19c-4.3 1.4 -4.3 -2.5 -6 -3m12 5v-3.5c0 -1 .1 -1.4 -.5 -2c2.8 -.3 5.5 -1.4 5.5 -6a4.6 4.6 0 0 0 -1.3 -3.2a4.2 4.2 0 0 0 -.1 -3.2s-1.1 -.3 -3.5 1.3a12.3 12.3 0 0 0 -6.2 0c-2.4 -1.6 -3.5 -1.3 -3.5 -1.3a4.2 4.2 0 0 0 -.1 3.2a4.6 4.6 0 0 0 -1.3 3.2c0 4.6 2.7 5.7 5.5 6c-.6 .6 -.6 1.2 -.5 2v3.5" ></path>
</symbol>
<symbol viewBox="0 0 24 24" fill="none" stroke="currentColor" stroke-width="2" stroke-linecap="round" stroke-linejoin="round" id="tabler/brand-linkedin-outline">
  <path d="M4 4m0 2a2 2 0 0 1 2 -2h12a2 2 0 0 1 2 2v12a2 2 0 0 1 -2 2h-12a2 2 0 0 1 -2 -2z" ></path>
  <path d="M8 11l0 5" ></path>
  <path d="M8 8l0 .01" ></path>
  <path d="M12 16l0 -5" ></path>
  <path d="M16 16v-3a2 2 0 0 0 -4 0" ></path>
</symbol>
<symbol viewBox="0 0 24 24" fill="none" stroke="currentColor" stroke-width="2" stroke-linecap="round" stroke-linejoin="round" id="tabler/brand-mongodb-outline">
  <path d="M12 3v19" ></path>
  <path d="M18 11.227c0 3.273 -1.812 4.77 -6 9.273c-4.188 -4.503 -6 -6 -6 -9.273c0 -4.454 3.071 -6.927 6 -9.227c2.929 2.3 6 4.773 6 9.227z" ></path>
</symbol>
<symbol viewBox="0 0 24 24" fill="none" stroke="currentColor" stroke-width="2" stroke-linecap="round" stroke-linejoin="round" id="tabler/brand-nextjs-outline">
  <path d="M9 15v-6l7.745 10.65a9 9 0 1 1 2.255 -1.993" ></path>
  <path d="M15 12v-3" ></path>
</symbol>
<symbol viewBox="0 0 24 24" fill="none" stroke="currentColor" stroke-width="2" stroke-linecap="round" stroke-linejoin="round" id="tabler/brand-react-outline">
  <path d="M6.306 8.711c-2.602 .723 -4.306 1.926 -4.306 3.289c0 2.21 4.477 4 10 4c.773 0 1.526 -.035 2.248 -.102" ></path>
  <path d="M17.692 15.289c2.603 -.722 4.308 -1.926 4.308 -3.289c0 -2.21 -4.477 -4 -10 -4c-.773 0 -1.526 .035 -2.25 .102" ></path>
  <path d="M6.305 15.287c-.676 2.615 -.485 4.693 .695 5.373c1.913 1.105 5.703 -1.877 8.464 -6.66c.387 -.67 .733 -1.339 1.036 -2" ></path>
  <path d="M17.694 8.716c.677 -2.616 .487 -4.696 -.694 -5.376c-1.913 -1.105 -5.703 1.877 -8.464 6.66c-.387 .67 -.733 1.34 -1.037 2" ></path>
  <path d="M12 5.424c-1.925 -1.892 -3.82 -2.766 -5 -2.084c-1.913 1.104 -1.226 5.877 1.536 10.66c.386 .67 .793 1.304 1.212 1.896" ></path>
  <path d="M12 18.574c1.926 1.893 3.821 2.768 5 2.086c1.913 -1.104 1.226 -5.877 -1.536 -10.66c-.375 -.65 -.78 -1.283 -1.212 -1.897" ></path>
  <path d="M11.5 12.866a1 1 0 1 0 1 -1.732a1 1 0 0 0 -1 1.732z" ></path>
</symbol>
<symbol viewBox="0 0 24 24" fill="none" stroke="currentColor" stroke-width="2" stroke-linecap="round" stroke-linejoin="round" id="tabler/brand-tailwind-outline">
  <path d="M11.667 6c-2.49 0 -4.044 1.222 -4.667 3.667c.933 -1.223 2.023 -1.68 3.267 -1.375c.71 .174 1.217 .68 1.778 1.24c.916 .912 2 1.968 4.288 1.968c2.49 0 4.044 -1.222 4.667 -3.667c-.933 1.223 -2.023 1.68 -3.267 1.375c-.71 -.174 -1.217 -.68 -1.778 -1.24c-.916 -.912 -1.975 -1.968 -4.288 -1.968zm-4 6.5c-2.49 0 -4.044 1.222 -4.667 3.667c.933 -1.223 2.023 -1.68 3.267 -1.375c.71 .174 1.217 .68 1.778 1.24c.916 .912 1.975 1.968 4.288 1.968c2.49 0 4.044 -1.222 4.667 -3.667c-.933 1.223 -2.023 1.68 -3.267 1.375c-.71 -.174 -1.217 -.68 -1.778 -1.24c-.916 -.912 -1.975 -1.968 -4.288 -1.968z" ></path>
</symbol>
<symbol viewBox="0 0 24 24" fill="none" stroke="currentColor" stroke-width="2" stroke-linecap="round" stroke-linejoin="round" id="tabler/brand-upwork-outline">
  <path d="M3 7v5a3 3 0 0 0 6 0v-5h1l4 6c.824 1.319 1.945 2 3.5 2a3.5 3.5 0 0 0 0 -7c-2.027 0 -3.137 1 -3.5 3c-.242 1.33 -.908 4 -2 8" ></path>
</symbol>
<symbol viewBox="0 0 24 24" fill="none" stroke="currentColor" stroke-width="2" stroke-linecap="round" stroke-linejoin="round" id="tabler/brand-vercel-outline">
  <path d="M3 19h18l-9 -15z" ></path>
</symbol>
<symbol viewBox="0 0 24 24" fill="none" stroke="currentColor" stroke-width="2" stroke-linecap="round" stroke-linejoin="round" id="tabler/brand-vscode-outline">
  <path d="M16 3v18l4 -2.5v-13z" ></path>
  <path d="M9.165 13.903l-4.165 3.597l-2 -1l4.333 -4.5m1.735 -1.802l6.932 -7.198v5l-4.795 4.141" ></path>
  <path d="M16 16.5l-11 -10l-2 1l13 13.5" ></path>
</symbol>
<symbol viewBox="0 0 24 24" fill="none" stroke="currentColor" stroke-width="2" stroke-linecap="round" stroke-linejoin="round" id="tabler/mail-outline">
  <path d="M3 7a2 2 0 0 1 2 -2h14a2 2 0 0 1 2 2v10a2 2 0 0 1 -2 2h-14a2 2 0 0 1 -2 -2v-10z" ></path>
  <path d="M3 7l9 6l9 -6" ></path>
</symbol>
<symbol viewBox="0 0 24 24" fill="none" stroke="currentColor" stroke-width="2" stroke-linecap="round" stroke-linejoin="round" id="tabler/brand-css3-outline">
  <path d="M20 4l-2 14.5l-6 2l-6 -2l-2 -14.5z" ></path>
  <path d="M8.5 8h7l-4.5 4h4l-.5 3.5l-2.5 .75l-2.5 -.75l-.1 -.5" ></path>
</symbol>
<symbol viewBox="0 0 24 24" fill="none" stroke="currentColor" stroke-width="2" stroke-linecap="round" stroke-linejoin="round" id="tabler/brand-figma-outline">
  <path d="M15 12m-3 0a3 3 0 1 0 6 0a3 3 0 1 0 -6 0" ></path>
  <path d="M6 3m0 3a3 3 0 0 1 3 -3h6a3 3 0 0 1 3 3v0a3 3 0 0 1 -3 3h-6a3 3 0 0 1 -3 -3z" ></path>
  <path d="M9 9a3 3 0 0 0 0 6h3m-3 0a3 3 0 1 0 3 3v-15" ></path>
</symbol>
<symbol viewBox="0 0 24 24" fill="none" stroke="currentColor" stroke-width="2" stroke-linecap="round" stroke-linejoin="round" id="tabler/brand-gitlab-outline">
  <path d="M21 14l-9 7l-9 -7l3 -11l3 7h6l3 -7z" ></path>
</symbol>
<symbol viewBox="0 0 24 24" fill="none" stroke="currentColor" stroke-width="2" stroke-linecap="round" stroke-linejoin="round" id="tabler/brand-html5-outline">
  <path d="M20 4l-2 14.5l-6 2l-6 -2l-2 -14.5z" ></path>
  <path d="M15.5 8h-7l.5 4h6l-.5 3.5l-2.5 .75l-2.5 -.75l-.1 -.5" ></path>
</symbol>
<symbol viewBox="0 0 24 24" fill="none" stroke="currentColor" stroke-width="2" stroke-linecap="round" stroke-linejoin="round" id="tabler/brand-nodejs-outline">
  <path d="M9 9v8.044a2 2 0 0 1 -2.996 1.734l-1.568 -.9a3 3 0 0 1 -1.436 -2.561v-6.635a3 3 0 0 1 1.436 -2.56l6 -3.667a3 3 0 0 1 3.128 0l6 3.667a3 3 0 0 1 1.436 2.561v6.634a3 3 0 0 1 -1.436 2.56l-6 3.667a3 3 0 0 1 -3.128 0" ></path>
  <path d="M17 9h-3.5a1.5 1.5 0 0 0 0 3h2a1.5 1.5 0 0 1 0 3h-3.5" ></path>
</symbol>
<symbol viewBox="0 0 24 24" fill="none" stroke="currentColor" stroke-width="2" stroke-linecap="round" stroke-linejoin="round" id="tabler/brand-npm-outline">
  <path d="M1 8h22v7h-12v2h-4v-2h-6z" ></path>
  <path d="M7 8v7" ></path>
  <path d="M14 8v7" ></path>
  <path d="M17 11v4" ></path>
  <path d="M4 11v4" ></path>
  <path d="M11 11v1" ></path>
  <path d="M20 11v4" ></path>
</symbol>
<symbol viewBox="0 0 24 24" fill="none" stroke="currentColor" stroke-width="2" stroke-linecap="round" stroke-linejoin="round" id="tabler/brand-tabler-outline">
  <path d="M8 9l3 3l-3 3" ></path>
  <path d="M13 15l3 0" ></path>
  <path d="M4 4m0 4a4 4 0 0 1 4 -4h8a4 4 0 0 1 4 4v8a4 4 0 0 1 -4 4h-8a4 4 0 0 1 -4 -4z" ></path>
</symbol>
</defs>
</svg>
